<?xml version="1.0" encoding="utf-8"?>
<!-- Generator: Adobe Illustrator 23.0.6, SVG Export Plug-In . SVG Version: 6.00 Build 0)  -->
<svg version="1.1" id="Layer_1" xmlns="http://www.w3.org/2000/svg" xmlns:xlink="http://www.w3.org/1999/xlink" x="0px" y="0px"
	 viewBox="0 0 136 136" style="enable-background:new 0 0 136 136;" xml:space="preserve">
<style type="text/css">
	.st0{fill:#2D7DAA;}
</style>
<g>
	<path class="st0" d="M64.21,61.73c-0.58,0-1.02,0.23-1.3,0.57h-4.09c-1.51,0-1.51,2.27,0,2.27h4.09c0.29,0.34,0.72,0.57,1.31,0.57
		C66.49,65.13,66.49,61.73,64.21,61.73z"/>
	<path class="st0" d="M64.95,48.07l-8.69,0c-0.94,0-1.28,0.08-2.15,1.22l-5.83,8.21c-0.66,0.94-0.44,1.7,0.5,1.7h16.17
		c0.94,0,1.7-0.76,1.7-1.7v-7.73C66.64,48.83,65.89,48.07,64.95,48.07z"/>
	<path class="st0" d="M96.88,77.73c-2.68,0-4.84,2.17-4.84,4.84c0,2.68,2.17,4.85,4.84,4.85c2.68,0,4.84-2.17,4.85-4.85
		C101.73,79.9,99.56,77.73,96.88,77.73z"/>
	<path class="st0" d="M37.7,77.77c-2.67,0-4.85,2.17-4.85,4.84c0,2.68,2.17,4.85,4.85,4.85c2.67,0,4.84-2.17,4.84-4.85
		C42.54,79.94,40.37,77.77,37.7,77.77z"/>
	<path class="st0" d="M93.92,61.73c-0.58,0-1.02,0.23-1.3,0.57h-4.09c-1.51,0-1.51,2.27,0,2.27h4.1c0.28,0.34,0.72,0.57,1.31,0.57
		C96.19,65.13,96.19,61.73,93.92,61.73z"/>
	<path class="st0" d="M89.64,49.26c-0.86-1.13-1.21-1.22-2.15-1.22l-15.15,0.04c-0.94,0-1.7,0.76-1.7,1.7v7.72
		c0,0.94,0.76,1.7,1.7,1.7l22.63-0.04c0.94,0,1.17-0.76,0.5-1.7L89.64,49.26z"/>
	<path class="st0" d="M68,1C31,1,1,31,1,68c0,37,30,67,67,67s67-30,67-67C135,31,105,1,68,1z M37.69,92.52
		c-5.47,0-9.9-4.43-9.9-9.91c0-5.47,4.44-9.9,9.9-9.9c5.47,0,9.9,4.43,9.9,9.9C47.59,88.09,43.16,92.52,37.69,92.52z M96.88,92.48
		c-5.47,0-9.9-4.43-9.9-9.91c0-5.47,4.43-9.9,9.9-9.9c5.46,0,9.9,4.43,9.9,9.9C106.78,88.05,102.34,92.48,96.88,92.48z M116.04,80.4
		l-6.05,0c-1.03-6.31-6.52-11.12-13.12-11.12c-6.58,0-12.03,4.77-13.1,11.04H50.79c-1.08-6.25-6.53-11.01-13.1-11.01
		c-6.57,0-12.03,4.78-13.1,11.05l-4.9,0c-0.94,0-1.7-0.76-1.7-1.7v-4.49c0-0.94,0.76-1.69,1.7-1.69l3-0.02V63.7
		c0-2.5,2.03-4.54,4.53-4.54h14.7l8.7-12.26c1.53-2.04,3-2.84,5.34-2.84l37.66,0.04c2.34,0,3.82,0.8,5.35,2.84l11.67,16.43
		c1.6,1.95,2.56,4.45,2.56,7.17v1.97l2.83,0.01c0.95,0,1.7,0.76,1.7,1.7v4.48C117.74,79.64,116.98,80.4,116.04,80.4z"/>
</g>
</svg>
