<?xml version="1.0" encoding="utf-8"?>
<!-- Generator: Adobe Illustrator 23.0.6, SVG Export Plug-In . SVG Version: 6.00 Build 0)  -->
<svg version="1.1" id="Layer_1" xmlns="http://www.w3.org/2000/svg" xmlns:xlink="http://www.w3.org/1999/xlink" x="0px" y="0px"
	 viewBox="0 0 136 136" style="enable-background:new 0 0 136 136;" xml:space="preserve">
<style type="text/css">
	.st0{fill:#2D7DAA;}
</style>
<g>
	<path class="st0" d="M95.47,79.27c-2.88,0-5.21,2.33-5.21,5.21c0,2.88,2.33,5.21,5.21,5.21c2.88,0,5.21-2.33,5.21-5.21
		C100.67,81.6,98.34,79.27,95.47,79.27z"/>
	<path class="st0" d="M39.54,79.27c-2.88,0-5.21,2.33-5.21,5.21c0,2.88,2.32,5.21,5.21,5.21c2.88,0,5.21-2.33,5.21-5.21
		C44.75,81.6,42.42,79.27,39.54,79.27z"/>
	<path class="st0" d="M70.67,57.47v-8.31c0-1.01-0.81-1.83-1.83-1.83l-9.34,0c-1.02,0-1.39,0.09-2.31,1.31l-6.27,8.82
		c-0.71,1.01-0.48,1.83,0.54,1.83h17.38C69.86,59.3,70.67,58.48,70.67,57.47z"/>
	<path class="st0" d="M72.14,62.05c-0.62,0-1.09,0.24-1.4,0.61h-4.4c-1.62,0-1.62,2.44,0,2.44h4.4c0.31,0.36,0.77,0.61,1.4,0.61
		C74.59,65.7,74.59,62.05,72.14,62.05z"/>
	<path class="st0" d="M68,1C31,1,1,31,1,68c0,37,30,67,67,67s67-30,67-67C135,31,105,1,68,1z M39.53,95.13
		c-5.88,0-10.65-4.77-10.65-10.65c0-5.88,4.77-10.65,10.65-10.65c5.88,0,10.65,4.77,10.65,10.65
		C50.18,90.36,45.41,95.13,39.53,95.13z M95.46,95.13c-5.88,0-10.65-4.77-10.65-10.65c0-5.88,4.77-10.65,10.65-10.65
		c5.88,0,10.65,4.77,10.65,10.65C106.1,90.36,101.33,95.13,95.46,95.13z M116.2,82.1l-6.64-0.01c-1.14-6.76-7.02-11.91-14.1-11.91
		c-7.08,0-12.96,5.15-14.1,11.91l-27.73,0c-1.14-6.76-7.02-11.91-14.1-11.91c-7.09,0-12.98,5.16-14.11,11.92l-5.38,0.01
		c-1.01,0-1.83-0.82-1.83-1.83v-4.82c0-1.01,0.82-1.82,1.83-1.82l3.23-0.02l-0.01-9.43c0-2.69,2.19-4.88,4.88-4.88h15.81l9.36-13.18
		c1.65-2.19,3.23-3.05,5.75-3.05l13.38,0c3.37,0,6.1,2.73,6.1,6.1V59.3l34.63,0v14.31l3.04,0.02c1.01,0,1.83,0.81,1.83,1.82v4.82
		C118.03,81.28,117.21,82.1,116.2,82.1z"/>
</g>
</svg>
