<?xml version="1.0" encoding="utf-8"?>
<!-- Generator: Adobe Illustrator 23.0.6, SVG Export Plug-In . SVG Version: 6.00 Build 0)  -->
<svg version="1.1" id="Layer_1" xmlns="http://www.w3.org/2000/svg" xmlns:xlink="http://www.w3.org/1999/xlink" x="0px" y="0px"
	 viewBox="0 0 136 136" style="enable-background:new 0 0 136 136;" xml:space="preserve">
<style type="text/css">
	.st0{fill:#2D7DAA;}
</style>
<path class="st0" d="M52.42,48.86l2.3,5.96h-4.64L52.42,48.86z M135,68c0,37-30,67-67,67S1,105,1,68S31,1,68,1S135,31,135,68z
	 M75.81,60.89h10.92v-3.43H79.9V44.79h-4.09V60.89z M62.93,60.89h10.92v-3.43h-6.83V44.79h-4.09V60.89z M26.41,67.79h-4.21
	l-4.12,11.84l-4.12-11.84H9.6l6.25,16.1h4.23L26.41,67.79z M40.86,80.67H32.1v-3.24h7.68v-3.22H32.1v-3.2h8.51v-3.22H28v16.1h12.85
	V80.67z M58.36,67.79h-4.09v6.62H47.6v-6.62H43.5v16.1h4.09v-6.25h6.67v6.25h4.09V67.79z M61.43,60.89l-6.78-16.1h-4.21l-6.94,16.1
	h4.21l1.17-2.97h7.04l1.15,2.97H61.43z M65.68,67.79h-4.09v16.1h4.09V67.79z M82.95,81.13l-2.39-2.53
	c-1.13,1.15-2.69,1.89-4.05,1.89c-2.55,0-4.48-2.05-4.48-4.74c0-2.64,1.93-4.67,4.48-4.67c1.43,0,2.99,0.8,4.05,2.09l2.37-2.81
	c-1.61-1.66-4.09-2.71-6.48-2.71c-4.9,0-8.6,3.5-8.6,8.14c0,4.71,3.61,8.28,8.46,8.28C78.67,84.07,81.22,82.9,82.95,81.13z
	 M95.73,80.46h-6.83V67.79h-4.09v16.1h10.92V80.46z M110.55,80.67h-8.76v-3.24h7.68v-3.22h-7.68v-3.2h8.51v-3.22h-12.6v16.1h12.85
	V80.67z M125.77,79.11c0-5.82-8.51-4.23-8.51-7.01c0-0.78,0.71-1.17,1.77-1.17c1.31,0,3.45,0.69,5.15,1.68l1.54-3.2
	c-1.66-1.08-4.02-1.79-6.35-1.79c-3.86,0-6.42,1.89-6.42,4.85c0,5.7,8.51,4,8.51,6.85c0,0.92-0.8,1.4-2.09,1.4
	c-1.68,0-4.16-0.97-5.82-2.41l-1.59,3.15c1.91,1.56,4.67,2.58,7.36,2.58C122.92,84.03,125.77,82.33,125.77,79.11z"/>
</svg>
