<?xml version="1.0" encoding="utf-8"?>
<!-- Generator: Adobe Illustrator 23.0.6, SVG Export Plug-In . SVG Version: 6.00 Build 0)  -->
<svg version="1.1" id="Layer_1" xmlns="http://www.w3.org/2000/svg" xmlns:xlink="http://www.w3.org/1999/xlink" x="0px" y="0px"
	 viewBox="0 0 136 136" style="enable-background:new 0 0 136 136;" xml:space="preserve">
<style type="text/css">
	.st0{fill:#2D7DAA;}
</style>
<g>
	<path class="st0" d="M67.54,63.02c-0.63,0-1.1,0.25-1.4,0.61h-4.4c-1.63,0-1.63,2.44,0,2.44h4.4c0.31,0.36,0.77,0.61,1.41,0.61
		C69.99,66.68,69.99,63.02,67.54,63.02z"/>
	
		<ellipse transform="matrix(0.9732 -0.2298 0.2298 0.9732 -17.0983 24.1017)" class="st0" cx="94.95" cy="85.48" rx="5.21" ry="5.21"/>
	<path class="st0" d="M39.03,80.27c-2.88,0-5.21,2.33-5.21,5.21c0,2.88,2.33,5.21,5.21,5.21c2.88,0,5.21-2.33,5.21-5.21
		C44.24,82.6,41.91,80.27,39.03,80.27z"/>
	<path class="st0" d="M68,1C31,1,1,31,1,68c0,37,30,67,67,67s67-30,67-67C135,31,105,1,68,1z M39.03,96.13
		c-5.88,0-10.65-4.77-10.65-10.65c0-5.88,4.77-10.65,10.65-10.65c5.88,0,10.65,4.77,10.65,10.65
		C49.68,91.36,44.91,96.13,39.03,96.13z M94.95,96.13c-5.88,0-10.65-4.77-10.65-10.65c0-5.88,4.77-10.65,10.65-10.65
		c5.88,0,10.65,4.77,10.65,10.65C105.6,91.36,100.83,96.13,94.95,96.13z M115.69,83.1l-6.64,0c-1.13-6.77-7.02-11.92-14.1-11.92
		c-7.08,0-12.96,5.15-14.1,11.91l-27.72-0.01c-1.14-6.76-7.02-11.9-14.1-11.9c-7.08,0-12.96,5.16-14.1,11.91l-5.38,0.01
		c-1.01,0-1.83-0.82-1.83-1.83v-4.82c0-1.01,0.82-1.83,1.83-1.83l3.22-0.01v-9.43c0-2.69,2.18-4.88,4.87-4.88l15.81,0l9.36-13.18
		c1.65-2.19,3.23-3.05,5.75-3.05l47.97,0c3.36,0,6.1,2.73,6.1,6.1l0.01,24.44l3.05,0.01c1.01,0,1.82,0.82,1.82,1.83v4.82
		C117.51,82.28,116.7,83.1,115.69,83.1z"/>
	<path class="st0" d="M68.33,48.33l-9.34,0c-1.02,0-1.4,0.09-2.32,1.31l-6.27,8.82c-0.71,1.01-0.47,1.83,0.54,1.83h17.38
		c1.01,0,1.83-0.82,1.83-1.83v-8.31C70.16,49.15,69.34,48.33,68.33,48.33z"/>
	<path class="st0" d="M106.57,48.33h-0.69h-8.45c-1.01,0-1.25,0.82-0.54,1.83l6.27,8.82c0.93,1.22,1.3,1.32,2.31,1.32l1.1,0
		c1.01,0,1.83-0.82,1.83-1.83v-8.31C108.4,49.15,107.59,48.33,106.57,48.33z"/>
	<path class="st0" d="M91.76,49.65c-0.92-1.22-1.3-1.31-2.32-1.31l-13.27,0c-1.01,0-1.83,0.82-1.83,1.83v8.31
		c0,1.01,0.82,1.83,1.83,1.83h21.32c1.01,0,1.25-0.82,0.53-1.83L91.76,49.65z"/>
	<path class="st0" d="M82.46,63.63h-4.4c-0.3-0.36-0.77-0.61-1.4-0.61c-2.45,0-2.45,3.66-0.01,3.66c0.64,0,1.1-0.25,1.41-0.61h4.41
		C84.08,66.07,84.08,63.63,82.46,63.63z"/>
</g>
</svg>
