<?xml version="1.0" encoding="utf-8"?>
<!-- Generator: Adobe Illustrator 23.0.6, SVG Export Plug-In . SVG Version: 6.00 Build 0)  -->
<svg version="1.1" id="Layer_1" xmlns="http://www.w3.org/2000/svg" xmlns:xlink="http://www.w3.org/1999/xlink" x="0px" y="0px"
	 viewBox="0 0 136 136" style="enable-background:new 0 0 136 136;" xml:space="preserve">
<style type="text/css">
	.st0{fill:#2D7DAA;}
</style>
<g>
	<ellipse class="st0" cx="95.7" cy="84.47" rx="5.21" ry="5.21"/>
	<path class="st0" d="M39.78,79.27c-2.88,0-5.21,2.33-5.21,5.21s2.34,5.21,5.21,5.21c2.88,0,5.21-2.33,5.21-5.21
		S42.65,79.27,39.78,79.27z"/>
	<path class="st0" d="M69.08,47.33h-9.34c-1.01,0-1.39,0.09-2.31,1.31l-6.27,8.82c-0.71,1.01-0.47,1.83,0.54,1.83h17.38
		c1.01,0,1.83-0.82,1.83-1.83v-8.31C70.9,48.15,70.09,47.33,69.08,47.33z"/>
	<path class="st0" d="M68.29,62.02c-0.63,0-1.1,0.25-1.4,0.61h-4.4c-1.63,0-1.63,2.44,0,2.44h4.4c0.31,0.36,0.78,0.61,1.41,0.61
		C70.74,65.67,70.74,62.02,68.29,62.02z"/>
	<path class="st0" d="M68,1C31,1,1,31,1,68s30,67,67,67s67-30,67-67S105,1,68,1z M39.78,95.12c-5.88,0-10.65-4.77-10.65-10.65
		c0-5.88,4.77-10.65,10.65-10.65s10.65,4.77,10.65,10.65C50.42,90.36,45.66,95.12,39.78,95.12z M95.7,95.12
		c-5.88,0-10.65-4.77-10.65-10.65c0-5.88,4.77-10.65,10.65-10.65c5.88,0,10.65,4.77,10.65,10.65
		C106.35,90.36,101.58,95.12,95.7,95.12z M116.43,82.09h-4.31l-2.32-0.01c-1.13-6.76-7.01-11.91-14.1-11.91
		c-7.08,0-12.96,5.14-14.1,11.9l-27.73,0.01c-1.14-6.76-7.02-11.9-14.1-11.9c-7.09,0-12.97,5.16-14.1,11.91l-5.38,0.01
		c-1.01,0-1.83-0.82-1.83-1.83v-4.82c0-1.01,0.82-1.83,1.83-1.83l3.23-0.01v-2.12c0-6.73,5.46-12.19,12.19-12.19h8.48l9.36-13.18
		c1.65-2.19,3.23-3.05,5.75-3.05h33.03c2.52,0,4.1,0.86,5.75,3.05l9.37,13.18h1.09c2.7,0,4.88,2.18,4.88,4.88v9.44h3.01
		c1.01,0,1.83,0.82,1.83,1.83v4.82C118.27,81.27,117.45,82.09,116.43,82.09z"/>
	<path class="st0" d="M92.51,48.64c-0.92-1.22-1.29-1.31-2.31-1.31H76.93c-1.01,0-1.83,0.82-1.83,1.83v8.31
		c0,1.01,0.82,1.83,1.83,1.83h21.32c1.01,0,1.25-0.82,0.54-1.83L92.51,48.64z"/>
</g>
</svg>
