<svg xmlns="http://www.w3.org/2000/svg" xmlns:xlink="http://www.w3.org/1999/xlink" version="1.1" x="0px" y="0px" viewBox="0 0 100 125" enable-background="new 0 0 100 100" xml:space="preserve"><path fill="#000000" d="M10.735,64.225c0-5.884,4.768-10.646,10.652-10.646c5.881,0,10.646,4.766,10.646,10.646  c0,5.883-4.768,10.65-10.646,10.65C15.503,74.875,10.735,70.107,10.735,64.225L10.735,64.225z M16.175,64.225  c0,2.877,2.336,5.209,5.213,5.209c2.875,0,5.209-2.332,5.209-5.209s-2.334-5.209-5.209-5.209  C18.511,59.016,16.175,61.348,16.175,64.225L16.175,64.225z M48.495,42.378h-4.398c-1.627,0-1.627,2.438,0,2.438h4.4  c0.309,0.364,0.777,0.609,1.41,0.609c2.438,0,2.438-3.657-0.008-3.657C49.271,41.769,48.8,42.014,48.495,42.378L48.495,42.378z   M39.036,28.396l-6.27,8.822c-0.709,1.01-0.473,1.83,0.539,1.83h17.382c1.01,0,1.826-0.819,1.826-1.83v-8.306  c0-1.01-0.816-1.828-1.826-1.828l-9.339-0.002C40.333,27.082,39.96,27.174,39.036,28.396L39.036,28.396z M58.532,39.047H79.85  c1.01,0,1.25-0.819,0.535-1.83l-6.271-8.822c-0.924-1.222-1.293-1.314-2.311-1.314l-13.273,0.002c-1.01,0-1.829,0.818-1.829,1.828  v8.306C56.702,38.228,57.521,39.047,58.532,39.047L58.532,39.047z M89.062,39.047h1.088c2.695,0,4.879,2.182,4.879,4.876v9.438  h3.013c1.013,0,1.832,0.822,1.832,1.83v4.822c0,1.01-0.819,1.827-1.832,1.827H93.73l-2.324-0.005  c-1.133-6.758-7.014-11.913-14.098-11.913c-7.078,0-12.955,5.144-14.098,11.896l-27.729,0.008  c-1.141-6.758-7.02-11.903-14.096-11.903c-7.09,0-12.969,5.155-14.103,11.914l-5.381,0.009c-1.01,0-1.825-0.82-1.825-1.83v-4.822  c0-1.008,0.815-1.83,1.825-1.83l3.231-0.008v-2.117c0-6.732,5.459-12.19,12.189-12.19h8.484l9.357-13.184  c1.647-2.192,3.227-3.048,5.75-3.048h33.034c2.521,0,4.103,0.856,5.748,3.048L89.062,39.047L89.062,39.047z M72.1,64.225  c0,2.877,2.332,5.209,5.209,5.209s5.209-2.332,5.209-5.209s-2.332-5.209-5.209-5.209S72.1,61.348,72.1,64.225L72.1,64.225z   M66.657,64.225c0-5.884,4.771-10.646,10.649-10.646c5.881,0,10.65,4.766,10.65,10.646c0,5.883-4.771,10.65-10.65,10.65  C71.43,74.875,66.657,70.107,66.657,64.225L66.657,64.225z"/><text x="0" y="115" fill="#000000" font-size="5px" font-weight="bold" font-family="'Helvetica Neue', Helvetica, Arial-Unicode, Arial, Sans-serif">Created by Simon Child</text><text x="0" y="120" fill="#000000" font-size="5px" font-weight="bold" font-family="'Helvetica Neue', Helvetica, Arial-Unicode, Arial, Sans-serif">from the Noun Project</text></svg>