<?xml version="1.0" encoding="utf-8"?>
<!-- Generator: Adobe Illustrator 23.0.6, SVG Export Plug-In . SVG Version: 6.00 Build 0)  -->
<svg version="1.1" id="Layer_1" xmlns="http://www.w3.org/2000/svg" xmlns:xlink="http://www.w3.org/1999/xlink" x="0px" y="0px"
	 viewBox="0 0 606 262" style="enable-background:new 0 0 606 262;" xml:space="preserve">
<style type="text/css">
	.st0{fill:#063759;}
	.st1{fill:#AC2B30;}
	.st2{fill:#FFFFFF;}
</style>
<g id="Color_logo">
	<g>
		<path class="st0" d="M22.08,23.09c0-3.34-2.15-5.34-5.99-5.34H7.32V6h66.25c22.13,0,32.59,8.68,32.59,20.69
			c0,11.88-9.53,18.42-21.98,20.96v0.27c13.07,3.47,26.9,6.81,26.9,22.83c0,17.09-11.68,23.76-41.5,23.76H7.48V82.76h8.61
			c3.84,0,5.99-2,5.99-5.34V23.09z M50.97,42.71h8.45c10.45,0,17.83-2.8,17.83-12.55c0-9.74-7.38-12.42-17.83-12.42h-8.45V42.71z
			 M50.97,82.76h10.3c10.91,0,19.52-2.67,19.52-14.15c0-11.48-8.61-14.15-19.52-14.15h-10.3V82.76z"/>
		<path class="st0" d="M188.38,6l25.67,66.75c3.07,8.14,5.23,10.01,10.61,10.01h5.23v11.75h-56.1V82.76h4.61
			c4.61,0,8.45-0.53,8.45-2c0-1.33-0.15-2.8-0.77-4.8l-3.23-9.61h-31.36l-1.84,5.34c-1.69,4.67-2.31,6.67-2.31,8.54
			c0,2.14,5.38,2.54,9.53,2.54h4.46v11.75h-45.19V82.76h5.23c5.38,0,7.53-1.87,10.61-10.01L157.64,6H188.38z M155.94,54.59h22.29
			l-11.07-28.7h-0.31L155.94,54.59z"/>
		<path class="st0" d="M356.61,6v11.75c-9.53,0-13.37,0.27-17.37,3.34l-22.75,17.35l25.82,36.58c4.77,6.81,7.99,7.74,11.68,7.74
			h5.38v11.75H302.2V82.76h5.53c2.92,0,5.99-0.27,5.99-1.47c0-1.34-1.38-3.47-2.77-5.34l-15.22-21.49l-15.83,11.61v11.35
			c0,3.34,2.15,5.34,5.99,5.34h7.84v11.75h-56.56V82.76h7.84c3.84,0,5.99-2,5.99-5.34V23.09c0-3.34-2.15-5.34-5.99-5.34h-7.99V6
			h56.87v11.75h-7.99c-3.84,0-5.99,2-5.99,5.34v25.1l18.75-14.15c8.76-6.54,17.37-12.55,17.37-13.75c0-2.4-3.84-2.54-7.53-2.54
			h-5.99V6H356.61z"/>
		<path class="st0" d="M382.05,23.09c0-3.34-2.15-5.34-5.99-5.34h-9.53V6h102.22v33.91h-14.3c0-19.22-8.61-22.16-28.28-22.16h-15.22
			v25.5h4.77c8.92,0,12.14-3.07,12.14-11.35v-2.94h12.76v40.31h-12.76v-3.2c0-4.94-2.15-11.08-7.69-11.08h-9.22v27.77h18.75
			c16.14,0,24.75-2.94,24.75-24.43h14.3v36.18H366.68V82.76h9.38c3.84,0,5.99-2,5.99-5.34V23.09z"/>
		<path class="st0" d="M493.02,23.09c0-3.34-2.15-5.34-5.99-5.34h-9.53V6h70.86c21.52,0,34.28,7.34,34.28,21.63
			c0,12.68-9.84,18.42-23.21,20.02v0.27c11.53,2.8,17.98,6.01,17.98,16.95v14.02c0,2.54,1.08,4.54,5.23,4.54
			c4,0,5.07-4.14,5.07-8.28v-5.34H598v4.54c0,12.95-5.23,22.83-25.05,22.83c-14.6,0-24.44-6.27-24.44-21.89V64.34
			c0-8.01-1.54-9.88-13.99-9.88h-12.6v22.96c0,3.34,2.15,5.34,6,5.34h9.53v11.75h-59.79V82.76h9.38c3.84,0,5.99-2,5.99-5.34V23.09z
			 M521.91,42.71h14.76c11.37,0,17.06-2.14,17.06-12.82c0-9.88-6.61-12.15-20.75-12.15h-11.07V42.71z"/>
	</g>
	<g>
		<path class="st0" d="M52.88,108.81l14.36,44.34h0.25l14.74-44.34h44.46v9.59h-6.87c-3.12,0-4.87,1.63-4.87,4.36v44.34
			c0,2.72,1.75,4.36,4.87,4.36h6.87v9.59H81.35v-9.59h5.24c3.12,0,4.87-1.63,4.87-4.36v-45.97h-0.25l-19.61,59.91H53.38l-19.48-61
			h-0.25v47.06c0,2.72,1.75,4.36,4.87,4.36h5.24v9.59H7.68v-9.59h7.49c3.12,0,4.87-1.63,4.87-4.36v-44.34
			c0-2.72-1.75-4.36-4.87-4.36H7.68v-9.59H52.88z"/>
		<path class="st0" d="M224.1,144.98c0,23.64-17.86,38.24-45.33,38.24s-45.33-14.6-45.33-38.24c0-23.64,17.86-38.34,45.33-38.34
			S224.1,121.34,224.1,144.98z M160.53,144.98c0,19.06,5.74,28.1,18.23,28.1s18.23-9.04,18.23-28.1c0-19.06-5.74-28.21-18.23-28.21
			S160.53,125.92,160.53,144.98z"/>
		<path class="st0" d="M230.97,136.48v-27.67h82.92v27.67h-11.61c0-11.11-3.75-18.08-18.11-18.08v48.69c0,2.72,1.75,4.36,4.87,4.36
			h7.49v9.59h-48.45v-9.59h7.74c3.12,0,4.87-1.63,4.87-4.36V118.4c-14.36,0-18.11,6.97-18.11,18.08H230.97z"/>
		<path class="st0" d="M411.42,144.98c0,23.64-17.86,38.24-45.33,38.24c-27.47,0-45.33-14.6-45.33-38.24
			c0-23.64,17.86-38.34,45.33-38.34C393.56,106.64,411.42,121.34,411.42,144.98z M347.86,144.98c0,19.06,5.74,28.1,18.23,28.1
			c12.49,0,18.23-9.04,18.23-28.1c0-19.06-5.74-28.21-18.23-28.21C353.6,116.77,347.86,125.92,347.86,144.98z"/>
		<path class="st0" d="M429.41,122.76c0-2.72-1.75-4.36-4.87-4.36h-7.74v-9.59h57.57c17.48,0,27.85,5.99,27.85,17.65
			c0,10.35-7.99,15.03-18.86,16.34v0.22c9.37,2.29,14.61,4.9,14.61,13.83v11.44c0,2.07,0.87,3.7,4.25,3.7
			c3.25,0,4.12-3.38,4.12-6.75v-4.36h8.37v3.7c0,10.57-4.25,18.63-20.36,18.63c-11.86,0-19.86-5.12-19.86-17.87v-8.93
			c0-6.54-1.25-8.06-11.36-8.06h-10.24v18.74c0,2.72,1.75,4.36,4.87,4.36h7.74v9.59h-48.58v-9.59h7.62c3.12,0,4.87-1.63,4.87-4.36
			V122.76z M452.89,138.77h11.99c9.24,0,13.86-1.74,13.86-10.46c0-8.06-5.37-9.91-16.86-9.91h-8.99V138.77z"/>
		<path class="st0" d="M594.38,134.63h-11.49c-1.87-11.44-13.49-17.86-24.48-17.86c-7.24,0-13.99,2.07-13.99,9.37
			c0,13.73,54.07,2.72,54.07,33.77c0,17.43-17.23,23.31-34.47,23.31c-9.62,0-19.36-1.74-27.22-6.75l-3.25,5.77h-10.49V153.7h11.61
			c1.62,11.44,12.49,19.39,27.22,19.39c6.49,0,14.36-3.16,14.36-9.37c0-15.58-54.07-2.94-54.07-34.21
			c0-17.97,18.61-22.88,35.84-22.88c8.49,0,16.61,2.4,23.73,6.32l2.25-5.12h10.36V134.63z"/>
	</g>
	<rect x="8" y="194" class="st1" width="591" height="60"/>
	<g>
		<path class="st2" d="M61.42,245.4c-2.59,2.3-6.38,3.7-9.74,3.7c-4.66,0-8.59-2.88-10.8-7.54c-10.03-0.34-17.47-7.58-17.47-17.23
			c0-9.79,7.78-17.04,18.15-17.04c10.42,0,18.19,7.3,18.19,17.04c0,7.44-4.46,13.54-11.19,16.03c1.15,1.44,2.54,2.3,4.08,2.3
			s3.7-0.96,5.76-2.54L61.42,245.4z M41.64,234.4c5.18,0,9.31-4.37,9.31-10.03c0-5.67-4.13-9.94-9.31-9.94s-9.5,4.27-9.5,9.94
			C32.13,230.04,36.5,234.4,41.64,234.4z"/>
		<path class="st2" d="M97.13,227.06c0,8.88-5.9,14.5-15.31,14.5c-9.46,0-15.51-5.62-15.51-14.5v-19.49h8.54v19.49
			c0,4.56,2.93,7.34,7.01,7.34c4.03,0,6.77-2.78,6.77-7.34v-19.49h8.5V227.06z"/>
		<path class="st2" d="M112.41,234.98l-2.45,6.19h-8.79l14.5-33.6h8.78l14.16,33.6h-9.12l-2.4-6.19H112.41z M119.8,216.07
			l-4.9,12.43h9.7L119.8,216.07z"/>
		<path class="st2" d="M167.51,234.02v7.15h-22.8v-33.6h8.54v26.45H167.51z"/>
		<path class="st2" d="M174.01,241.17v-33.6h8.54v33.6H174.01z"/>
		<path class="st2" d="M207.4,214.44v26.74h-8.54v-26.74h-10.03v-6.91h28.71v6.91H207.4z"/>
		<path class="st2" d="M243.11,241.17h-8.5v-10.61l-12.43-22.99h8.54l8.11,14.64l7.92-14.64h8.54l-12.19,22.75V241.17z"/>
		<path class="st2" d="M307.48,227.06c0,8.88-5.9,14.5-15.31,14.5c-9.46,0-15.51-5.62-15.51-14.5v-19.49h8.54v19.49
			c0,4.56,2.93,7.34,7.01,7.34c4.03,0,6.77-2.78,6.77-7.34v-19.49h8.5V227.06z"/>
		<path class="st2" d="M342.78,210.93l-3.22,6.67c-3.55-2.06-8.02-3.5-10.75-3.5c-2.21,0-3.7,0.82-3.7,2.45
			c0,5.81,17.76,2.5,17.76,14.64c0,6.72-5.95,10.27-13.44,10.27c-5.62,0-11.38-2.11-15.36-5.38l3.31-6.58
			c3.46,3.03,8.64,5.04,12.15,5.04c2.69,0,4.37-1.01,4.37-2.93c0-5.95-17.76-2.4-17.76-14.31c0-6.19,5.33-10.13,13.39-10.13
			C334.38,207.19,339.32,208.67,342.78,210.93z"/>
		<path class="st2" d="M359.68,214.29v6.67h16.03v6.72h-16.03v6.77h18.29v6.72h-26.83v-33.6h26.31v6.72H359.68z"/>
		<path class="st2" d="M401.34,207.57c10.56,0,17.86,6.82,17.86,16.8c0,9.94-7.39,16.8-18.19,16.8h-14.11v-33.6H401.34z
			 M395.43,234.36h6.1c5.23,0,8.98-4.03,8.98-9.94c0-5.95-3.94-10.03-9.36-10.03h-5.71V234.36z"/>
		<path class="st2" d="M471.8,212.95l-4.94,5.86c-2.21-2.69-5.47-4.37-8.45-4.37c-5.33,0-9.36,4.22-9.36,9.74
			c0,5.62,4.03,9.89,9.36,9.89c2.83,0,6.1-1.54,8.45-3.94l4.99,5.28c-3.6,3.7-8.93,6.14-13.87,6.14c-10.13,0-17.67-7.44-17.67-17.28
			c0-9.7,7.73-16.99,17.95-16.99C463.26,207.28,468.44,209.49,471.8,212.95z"/>
		<path class="st2" d="M486.71,234.98l-2.45,6.19h-8.79l14.5-33.6h8.79l14.16,33.6h-9.12l-2.4-6.19H486.71z M494.1,216.07
			l-4.9,12.43h9.7L494.1,216.07z"/>
		<path class="st2" d="M534.28,231.72h-0.24h-6.48v9.46h-8.54v-33.6h15.03c8.88,0,13.97,4.22,13.97,11.71c0,5.14-2.16,8.83-6.1,10.8
			l7.06,11.09h-9.7L534.28,231.72z M534.04,225c3.7,0,5.86-1.87,5.86-5.42c0-3.5-2.16-5.28-5.86-5.28h-6.48V225H534.04z"/>
		<path class="st2" d="M582.69,210.93l-3.22,6.67c-3.55-2.06-8.02-3.5-10.75-3.5c-2.21,0-3.7,0.82-3.7,2.45
			c0,5.81,17.76,2.5,17.76,14.64c0,6.72-5.95,10.27-13.44,10.27c-5.62,0-11.38-2.11-15.36-5.38l3.31-6.58
			c3.46,3.03,8.64,5.04,12.15,5.04c2.69,0,4.37-1.01,4.37-2.93c0-5.95-17.76-2.4-17.76-14.31c0-6.19,5.33-10.13,13.39-10.13
			C574.29,207.19,579.24,208.67,582.69,210.93z"/>
	</g>
</g>
</svg>
