<?xml version="1.0" encoding="utf-8"?>
<!-- Generator: Adobe Illustrator 23.0.6, SVG Export Plug-In . SVG Version: 6.00 Build 0)  -->
<svg version="1.1" id="Layer_1" xmlns="http://www.w3.org/2000/svg" xmlns:xlink="http://www.w3.org/1999/xlink" x="0px" y="0px"
	 viewBox="0 0 610 262" style="enable-background:new 0 0 610 262;" xml:space="preserve">
<style type="text/css">
	.st0{fill:#FFFFFF;}
</style>
<g id="one_Color_logo">
	<path class="st0" d="M22.1,23.1c0-3.3-2.1-5.3-6-5.3H7.3V6h66.2c22.1,0,32.6,8.7,32.6,20.7c0,11.9-9.5,18.4-22,21v0.3
		c13.1,3.5,26.9,6.8,26.9,22.8c0,17.1-11.7,23.8-41.5,23.8H7.5V82.8h8.6c3.8,0,6-2,6-5.3V23.1z M51,42.7h8.5
		c10.5,0,17.8-2.8,17.8-12.5c0-9.7-7.4-12.4-17.8-12.4H51C51,17.7,51,42.7,51,42.7z M51,82.8h10.3c10.9,0,19.5-2.7,19.5-14.2
		s-8.6-14.2-19.5-14.2H51V82.8z M188.4,6l25.7,66.8c3.1,8.1,5.2,10,10.6,10h5.2v11.8h-56.1V82.8h4.6c4.6,0,8.4-0.5,8.4-2
		c0-1.3-0.1-2.8-0.8-4.8l-3.2-9.6h-31.4l-1.8,5.3c-1.7,4.7-2.3,6.7-2.3,8.5c0,2.1,5.4,2.5,9.5,2.5h4.5v11.8h-45.2V82.8h5.2
		c5.4,0,7.5-1.9,10.6-10L157.6,6H188.4z M155.9,54.6h22.3l-11.1-28.7h-0.3L155.9,54.6z M356.6,6v11.8c-9.5,0-13.4,0.3-17.4,3.3
		l-22.8,17.4L342.3,75c4.8,6.8,8,7.7,11.7,7.7h5.4v11.8h-57.2V82.8h5.5c2.9,0,6-0.3,6-1.5c0-1.3-1.4-3.5-2.8-5.3l-15.2-21.5
		l-15.8,11.6v11.3c0,3.3,2.1,5.3,6,5.3h7.8v11.8h-56.6V82.8h7.8c3.8,0,6-2,6-5.3V23.1c0-3.3-2.1-5.3-6-5.3h-8V6h56.9v11.8h-8
		c-3.8,0-6,2-6,5.3v25.1L298.7,34c8.8-6.5,17.4-12.5,17.4-13.8c0-2.4-3.8-2.5-7.5-2.5h-6V6H356.6z M382,23.1c0-3.3-2.1-5.3-6-5.3
		h-9.5V6h102.2v33.9h-14.3c0-19.2-8.6-22.2-28.3-22.2H411v25.5h4.8c8.9,0,12.1-3.1,12.1-11.4V29h12.8v40.3h-12.8v-3.2
		c0-4.9-2.1-11.1-7.7-11.1H411v27.8h18.8c16.1,0,24.8-2.9,24.8-24.4h14.3v36.2H366.7V82.8h9.4c3.8,0,6-2,6-5.3V23.1z M493,23.1
		c0-3.3-2.1-5.3-6-5.3h-9.5V6h70.9c21.5,0,34.3,7.3,34.3,21.6c0,12.7-9.8,18.4-23.2,20v0.3c11.5,2.8,18,6,18,17v14
		c0,2.5,1.1,4.5,5.2,4.5c4,0,5.1-4.1,5.1-8.3v-5.3H598v4.5c0,12.9-5.2,22.8-25,22.8c-14.6,0-24.4-6.3-24.4-21.9v-11
		c0-8-1.5-9.9-14-9.9h-12.6v23c0,3.3,2.2,5.3,6,5.3h9.5v11.8h-59.8V82.8h9.4c3.8,0,6-2,6-5.3L493,23.1L493,23.1z M521.9,42.7h14.8
		c11.4,0,17.1-2.1,17.1-12.8c0-9.9-6.6-12.1-20.8-12.1h-11.1V42.7z"/>
	<path class="st0" d="M52.9,108.8l14.4,44.3h0.2l14.7-44.3h44.5v9.6h-6.9c-3.1,0-4.9,1.6-4.9,4.4v44.3c0,2.7,1.8,4.4,4.9,4.4h6.9
		v9.6H81.3v-9.6h5.2c3.1,0,4.9-1.6,4.9-4.4v-46h-0.2L71.6,181H53.4l-19.5-61h-0.2v47.1c0,2.7,1.8,4.4,4.9,4.4h5.2v9.6H7.7v-9.6h7.5
		c3.1,0,4.9-1.6,4.9-4.4v-44.3c0-2.7-1.8-4.4-4.9-4.4H7.7v-9.6H52.9z M224.1,145c0,23.6-17.9,38.2-45.3,38.2s-45.3-14.6-45.3-38.2
		s17.9-38.3,45.3-38.3S224.1,121.3,224.1,145z M160.5,145c0,19.1,5.7,28.1,18.2,28.1S197,164,197,145s-5.7-28.2-18.2-28.2
		S160.5,125.9,160.5,145z M231,136.5v-27.7h82.9v27.7h-11.6c0-11.1-3.8-18.1-18.1-18.1v48.7c0,2.7,1.8,4.4,4.9,4.4h7.5v9.6h-48.4
		v-9.6h7.7c3.1,0,4.9-1.6,4.9-4.4v-48.7c-14.4,0-18.1,7-18.1,18.1H231z M411.4,145c0,23.6-17.9,38.2-45.3,38.2
		c-27.5,0-45.3-14.6-45.3-38.2s17.9-38.3,45.3-38.3C393.6,106.6,411.4,121.3,411.4,145z M347.9,145c0,19.1,5.7,28.1,18.2,28.1
		c12.5,0,18.2-9,18.2-28.1s-5.7-28.2-18.2-28.2C353.6,116.8,347.9,125.9,347.9,145z M429.4,122.8c0-2.7-1.8-4.4-4.9-4.4h-7.7v-9.6
		h57.6c17.5,0,27.9,6,27.9,17.7c0,10.3-8,15-18.9,16.3v0.2c9.4,2.3,14.6,4.9,14.6,13.8v11.4c0,2.1,0.9,3.7,4.2,3.7
		c3.2,0,4.1-3.4,4.1-6.8v-4.4h8.4v3.7c0,10.6-4.2,18.6-20.4,18.6c-11.9,0-19.9-5.1-19.9-17.9v-8.9c0-6.5-1.2-8.1-11.4-8.1h-10.2
		v18.7c0,2.7,1.8,4.4,4.9,4.4h7.7v9.6h-48.6v-9.6h7.6c3.1,0,4.9-1.6,4.9-4.4L429.4,122.8L429.4,122.8z M452.9,138.8h12
		c9.2,0,13.9-1.7,13.9-10.5c0-8.1-5.4-9.9-16.9-9.9h-9V138.8z M594.4,134.6h-11.5c-1.9-11.4-13.5-17.9-24.5-17.9
		c-7.2,0-14,2.1-14,9.4c0,13.7,54.1,2.7,54.1,33.8c0,17.4-17.2,23.3-34.5,23.3c-9.6,0-19.4-1.7-27.2-6.8l-3.2,5.8h-10.5v-28.5h11.6
		c1.6,11.4,12.5,19.4,27.2,19.4c6.5,0,14.4-3.2,14.4-9.4c0-15.6-54.1-2.9-54.1-34.2c0-18,18.6-22.9,35.8-22.9
		c8.5,0,16.6,2.4,23.7,6.3l2.2-5.1h10.4L594.4,134.6L594.4,134.6z"/>
	<path class="st0" d="M410.5,224.4c0,5.9-3.7,9.9-9,9.9h-6.1v-20h5.7C406.6,214.4,410.5,218.5,410.5,224.4z M114.9,228.5h9.7
		l-4.8-12.4L114.9,228.5z M534,214.3h-6.5V225h6.5c3.7,0,5.9-1.9,5.9-5.4C539.9,216.1,537.7,214.3,534,214.3z M489.2,228.5h9.7
		l-4.8-12.4L489.2,228.5z M41.6,214.4c-5.2,0-9.5,4.3-9.5,9.9c0,5.7,4.4,10,9.5,10c5.2,0,9.3-4.4,9.3-10
		C51,218.7,46.8,214.4,41.6,214.4z M599,194v60H8v-60H599z M61.4,245.4l-3-5.3c-2.1,1.6-4.2,2.5-5.8,2.5s-2.9-0.9-4.1-2.3
		c6.7-2.5,11.2-8.6,11.2-16c0-9.8-7.8-17-18.2-17c-10.4,0-18.1,7.2-18.1,17c0,9.6,7.4,16.9,17.5,17.2c2.2,4.7,6.1,7.5,10.8,7.5
		C55,249.1,58.8,247.7,61.4,245.4z M97.1,207.6h-8.5v19.5c0,4.6-2.7,7.3-6.8,7.3c-4.1,0-7-2.8-7-7.3v-19.5h-8.5v19.5
		c0,8.9,6.1,14.5,15.5,14.5c9.4,0,15.3-5.6,15.3-14.5V207.6z M138.6,241.2l-14.2-33.6h-8.8l-14.5,33.6h8.8l2.4-6.2h14.7l2.4,6.2
		L138.6,241.2L138.6,241.2z M167.5,234h-14.3v-26.4h-8.5v33.6h22.8L167.5,234L167.5,234z M182.6,207.6H174v33.6h8.5V207.6z
		 M217.5,207.5h-28.7v6.9h10v26.7h8.5v-26.7h10.1L217.5,207.5L217.5,207.5z M255.3,207.6h-8.5l-7.9,14.6l-8.1-14.6h-8.5l12.4,23
		v10.6h8.5v-10.9L255.3,207.6z M307.5,207.6H299v19.5c0,4.6-2.7,7.3-6.8,7.3c-4.1,0-7-2.8-7-7.3v-19.5h-8.5v19.5
		c0,8.9,6,14.5,15.5,14.5c9.4,0,15.3-5.6,15.3-14.5V207.6z M342.9,231.2c0-12.1-17.8-8.8-17.8-14.6c0-1.6,1.5-2.4,3.7-2.4
		c2.7,0,7.2,1.4,10.8,3.5l3.2-6.7c-3.5-2.3-8.4-3.7-13.2-3.7c-8.1,0-13.4,3.9-13.4,10.1c0,11.9,17.8,8.4,17.8,14.3
		c0,1.9-1.7,2.9-4.4,2.9c-3.5,0-8.7-2-12.1-5l-3.3,6.6c4,3.3,9.7,5.4,15.4,5.4C336.9,241.5,342.9,237.9,342.9,231.2z M378,234.4
		h-18.3v-6.8h16V221h-16v-6.7h17.8v-6.7h-26.3v33.6H378L378,234.4L378,234.4z M419.2,224.4c0-10-7.3-16.8-17.9-16.8h-14.5v33.6H401
		C411.8,241.2,419.2,234.3,419.2,224.4z M471.9,235.4l-5-5.3c-2.4,2.4-5.6,3.9-8.5,3.9c-5.3,0-9.4-4.3-9.4-9.9c0-5.5,4-9.7,9.4-9.7
		c3,0,6.2,1.7,8.5,4.4l4.9-5.9c-3.4-3.5-8.5-5.7-13.5-5.7c-10.2,0-18,7.3-18,17c0,9.8,7.5,17.3,17.7,17.3
		C462.9,241.6,468.2,239.1,471.9,235.4z M512.9,241.2l-14.2-33.6H490l-14.5,33.6h8.8l2.5-6.2h14.7l2.4,6.2L512.9,241.2L512.9,241.2z
		 M549,241.2l-7.1-11.1c3.9-2,6.1-5.7,6.1-10.8c0-7.5-5.1-11.7-14-11.7h-15v33.6h8.5v-9.5h6.5h0.2l5,9.5L549,241.2L549,241.2z
		 M582.8,231.2c0-12.1-17.8-8.8-17.8-14.6c0-1.6,1.5-2.4,3.7-2.4c2.7,0,7.2,1.4,10.8,3.5l3.2-6.7c-3.5-2.3-8.4-3.7-13.2-3.7
		c-8.1,0-13.4,3.9-13.4,10.1c0,11.9,17.8,8.4,17.8,14.3c0,1.9-1.7,2.9-4.4,2.9c-3.5,0-8.7-2-12.2-5l-3.3,6.6c4,3.3,9.7,5.4,15.4,5.4
		C576.8,241.5,582.8,237.9,582.8,231.2z"/>
</g>
</svg>
